<?xml version="1.0" encoding="utf-8"?>
<!-- Generator: Adobe Illustrator 16.0.0, SVG Export Plug-In . SVG Version: 6.00 Build 0)  -->
<!DOCTYPE svg PUBLIC "-//W3C//DTD SVG 1.1//EN" "http://www.w3.org/Graphics/SVG/1.1/DTD/svg11.dtd">
<svg version="1.1" id="Layer_1" xmlns="http://www.w3.org/2000/svg" xmlns:xlink="http://www.w3.org/1999/xlink" x="0px" y="0px"
	 width="378px" height="378px" viewBox="-61 -44.5 378 378" enable-background="new -61 -44.5 378 378" xml:space="preserve">
<g>
	<path fill="#4C2532" d="M113.116,226.686c33.834,13.061,70.044,0,90.82-25.525c-17.213,17.215-44.521,26.714-70.044,16.624
		c-37.99-15.435-51.048-45.708-40.363-79.544c10.685-33.831,43.924-54.015,79.54-42.737c26.117,8.309,43.926,29.68,47.486,54.016
		c-2.375-32.052-24.931-62.325-59.36-73.011c-43.922-14.247-90.816,8.311-104.469,49.861
		C43.667,167.327,69.785,210.065,113.116,226.686"/>
	<path fill="#5E2261" d="M190.283,143.584c2.373,37.99-26.118,70.635-64.107,73.605c-27.305,1.779-53.423-14.246-65.889-36.802
		c14.247,31.461,47.486,54.016,84.289,51.643c46.299-2.967,81.914-43.928,78.947-90.226
		C220.555,94.91,187.905,105.595,190.283,143.584"/>
	<path fill="#4C2532" d="M108.961,259.335c48.082-2.377,87.851-34.429,102.097-77.761c-13.061,31.459-43.924,54.015-80.135,55.798
		c-49.861,2.374-92.599-36.803-94.974-86.665c-2.374-49.862,36.802-92.599,86.664-94.974c36.208-1.781,68.857,18.401,84.291,48.676
		c-16.621-42.147-59.359-70.638-107.44-68.857C37.731,38.519-10.35,90.754-7.382,152.486
		C-5.007,214.219,47.822,262.303,108.961,259.335"/>
	<path fill="#9C7AA0" d="M232.426,133.492c-1.186-20.774-7.716-35.021-14.839-48.08c-3.56,4.75-6.528,8.905-9.499,12.464
		c-16.617-23.149-44.519-37.396-74.789-35.615c-36.209,2.375-65.889,27.9-75.387,60.547c9.499-23.744,32.055-41.552,59.36-43.925
		c81.323,0,74.199,75.979,53.421,109.218c-17.807,29.087-47.486,51.05-80.134,52.237c-39.176,1.78-73.604-20.182-91.412-53.425
		c17.808,46.301,64.701,77.762,116.938,75.388C183.16,259.926,235.393,201.756,232.426,133.492"/>
	<path fill="#5B245A" d="M237.175,178.013c1.188-8.312,2.374-16.621,2.971-25.526c0-68.854-55.798-124.058-124.061-124.058
		C56.726,28.428,6.27,69.979-5.007,126.37C9.239,82.445,46.635,51.579,91.747,51.579c56.392,0,102.69,50.455,102.69,112.781
		c0,11.873-7.121,102.69,76.571,94.379C264.48,256.366,224.71,256.958,237.175,178.013"/>
</g>
</svg>
